<svg width="14" height="4" viewBox="0 0 14 4" fill="none" xmlns="http://www.w3.org/2000/svg">
<path d="M2.3335 4C1.80306 4 1.29436 3.78929 0.919283 3.41421C0.54421 3.03914 0.333496 2.53043 0.333496 2C0.333496 1.46957 0.54421 0.960859 0.919283 0.585786C1.29436 0.210714 1.80306 0 2.3335 0C2.86393 0 3.37264 0.210714 3.74771 0.585786C4.12278 0.960859 4.3335 1.46957 4.3335 2C4.3335 2.53043 4.12278 3.03914 3.74771 3.41421C3.37264 3.78929 2.86393 4 2.3335 4ZM11.6668 4C11.1364 4 10.6277 3.78929 10.2526 3.41421C9.87754 3.03914 9.66683 2.53043 9.66683 2C9.66683 1.46957 9.87754 0.960859 10.2526 0.585786C10.6277 0.210714 11.1364 0 11.6668 0C12.1973 0 12.706 0.210714 13.081 0.585786C13.4561 0.960859 13.6668 1.46957 13.6668 2C13.6668 2.53043 13.4561 3.03914 13.081 3.41421C12.706 3.78929 12.1973 4 11.6668 4ZM7.00016 4C6.46973 4 5.96102 3.78929 5.58595 3.41421C5.21088 3.03914 5.00016 2.53043 5.00016 2C5.00016 1.46957 5.21088 0.960859 5.58595 0.585786C5.96102 0.210714 6.46973 0 7.00016 0C7.5306 0 8.0393 0.210714 8.41438 0.585786C8.78945 0.960859 9.00016 1.46957 9.00016 2C9.00016 2.53043 8.78945 3.03914 8.41438 3.41421C8.0393 3.78929 7.5306 4 7.00016 4Z" fill="#697077"/>
</svg>
